<svg xmlns="http://www.w3.org/2000/svg" xmlns:xlink="http://www.w3.org/1999/xlink" version="1.1" x="0px" y="0px" viewBox="0 0 100 125" enable-background="new 0 0 100 100" xml:space="preserve"><g><polygon fill="none" points="66.6,60.4 65.3,60.4 65.3,65.6 64.2,65.6 66,68.7 67.7,65.6 66.6,65.6  "/><path fill="none" d="M50,9C27.4,9,9,27.4,9,50c0,22.6,18.4,41,41,41s41-18.4,41-41C91,27.4,72.6,9,50,9z M49.3,25   c12.1,0,21.8,5.3,21.8,11.8c0,6.5-9.8,11.8-21.8,11.8s-21.8-5.3-21.8-11.8C27.4,30.2,37.2,25,49.3,25z M27.9,43   c2.1,5.3,10.9,9.3,21.3,9.3s19.2-4,21.3-9.3c0.3,0.8,0.5,1.7,0.5,2.5c0,6.5-9.8,11.8-21.8,11.8S27.4,52,27.4,45.5   C27.4,44.7,27.6,43.8,27.9,43z M70.9,54.4c0,0.7-0.1,1.4-0.4,2.2c-0.8-0.5-1.7-0.9-2.7-1.2c1.2-1.1,2.1-2.3,2.6-3.5   C70.8,52.7,70.9,53.5,70.9,54.4z M27.8,51.8c2.1,5.3,10.9,9.3,21.3,9.3c3,0,5.8-0.3,8.4-0.9c-0.6,1.2-0.9,2.5-0.8,4   c0,0.4,0,0.8,0.1,1.3c-2.4,0.5-5,0.8-7.7,0.8c-12.1,0-21.8-5.3-21.8-11.8C27.3,53.5,27.4,52.7,27.8,51.8z M49.1,75   C37,75,27.3,69.6,27.3,63.1c0-0.8,0.2-1.7,0.5-2.5c2.1,5.3,10.9,9.3,21.3,9.3c3.2,0,6.2-0.3,8.9-1c1,1.7,2.5,3,4.4,3.6   C58.7,74,54.1,75,49.1,75z M65.9,71.1c-3.9,0-7.1-3.1-7.1-6.9s3.2-6.9,7.1-6.9c3.9,0,7.1,3.1,7.1,6.9S69.7,71.1,65.9,71.1z"/><path fill="#000000" d="M50,5C25.1,5,5,25.1,5,50c0,24.9,20.1,45,45,45s45-20.1,45-45C95,25.1,74.9,5,50,5z M50,91   C27.4,91,9,72.6,9,50C9,27.4,27.4,9,50,9s41,18.4,41,41C91,72.6,72.6,91,50,91z"/><ellipse fill="#000000" cx="49.3" cy="36.8" rx="21.8" ry="11.8"/><path fill="#000000" d="M49.3,57.3c12.1,0,21.8-5.3,21.8-11.8c0-0.8-0.2-1.7-0.5-2.5c-2.1,5.3-10.9,9.3-21.3,9.3S30,48.3,27.9,43   c-0.3,0.8-0.5,1.7-0.5,2.5C27.4,52,37.2,57.3,49.3,57.3z"/><path fill="#000000" d="M70.5,56.6c0.3-0.8,0.4-1.5,0.4-2.2c0-0.8-0.2-1.7-0.5-2.5c-0.5,1.3-1.4,2.4-2.6,3.5   C68.8,55.6,69.7,56.1,70.5,56.6z"/><path fill="#000000" d="M49.1,66.2c2.7,0,5.2-0.3,7.7-0.8c-0.1-0.4-0.1-0.8-0.1-1.3c-0.1-1.4,0.3-2.8,0.8-4   c-2.6,0.6-5.5,0.9-8.4,0.9c-10.5,0-19.2-4-21.3-9.3c-0.3,0.8-0.5,1.7-0.5,2.5C27.3,60.9,37,66.2,49.1,66.2z"/><path fill="#000000" d="M58,68.9c-2.7,0.7-5.7,1-8.9,1c-10.5,0-19.2-4-21.3-9.3c-0.3,0.8-0.5,1.7-0.5,2.5C27.3,69.6,37,75,49.1,75   c5,0,9.6-0.9,13.3-2.4C60.6,71.8,59,70.6,58,68.9z"/><path fill="#000000" d="M65.9,57.2c-3.9,0-7.1,3.1-7.1,6.9s3.2,6.9,7.1,6.9c3.9,0,7.1-3.1,7.1-6.9S69.7,57.2,65.9,57.2z M66,68.7   l-1.8-3.1h1.1v-5.2h1.3v5.2h1.1L66,68.7z"/></g><text x="0" y="115" fill="#000000" font-size="5px" font-weight="bold" font-family="'Helvetica Neue', Helvetica, Arial-Unicode, Arial, Sans-serif">Created by Nimal Raj</text><text x="0" y="120" fill="#000000" font-size="5px" font-weight="bold" font-family="'Helvetica Neue', Helvetica, Arial-Unicode, Arial, Sans-serif">from the Noun Project</text></svg>